<?xml version="1.0" encoding="UTF-8" standalone="no"?>
<!-- Created with Inkscape (http://www.inkscape.org/) -->

<svg
   xmlns:dc="http://purl.org/dc/elements/1.1/"
   xmlns:cc="http://creativecommons.org/ns#"
   xmlns:rdf="http://www.w3.org/1999/02/22-rdf-syntax-ns#"
   xmlns:svg="http://www.w3.org/2000/svg"
   xmlns="http://www.w3.org/2000/svg"
   xmlns:xlink="http://www.w3.org/1999/xlink"
   xmlns:sodipodi="http://sodipodi.sourceforge.net/DTD/sodipodi-0.dtd"
   xmlns:inkscape="http://www.inkscape.org/namespaces/inkscape"
   width="186.69325"
   height="113.83509"
   id="svg2"
   version="1.1"
   inkscape:version="0.47pre4 r22446"
   sodipodi:docname="router.svg">
  <sodipodi:namedview
     id="base"
     pagecolor="#ffffff"
     bordercolor="#666666"
     borderopacity="1.0"
     inkscape:pageopacity="0.0"
     inkscape:pageshadow="2"
     inkscape:zoom="0.5"
     inkscape:cx="100.6244"
     inkscape:cy="101.69897"
     inkscape:document-units="px"
     inkscape:current-layer="layer1"
     showgrid="false"
     inkscape:window-width="1274"
     inkscape:window-height="916"
     inkscape:window-x="0"
     inkscape:window-y="51"
     inkscape:window-maximized="0" />
  <defs
     id="defs4">
    <inkscape:perspective
       id="perspective10"
       inkscape:persp3d-origin="372.04724 : 350.78739 : 1"
       inkscape:vp_z="744.09448 : 526.18109 : 1"
       inkscape:vp_y="0 : 1000 : 0"
       inkscape:vp_x="0 : 526.18109 : 1"
       sodipodi:type="inkscape:persp3d" />
    <linearGradient
       y2="527.33539"
       x2="286.6308"
       y1="518.55707"
       x1="282.35706"
       gradientUnits="userSpaceOnUse"
       id="linearGradient6112"
       xlink:href="#linearGradient5466"
       inkscape:collect="always" />
    <filter
       color-interpolation-filters="sRGB"
       height="1.3855422"
       y="-0.19277108"
       width="1.1285141"
       x="-0.064257026"
       id="filter6093"
       inkscape:collect="always">
      <feGaussianBlur
         id="feGaussianBlur6095"
         stdDeviation="0.89250425"
         inkscape:collect="always" />
    </filter>
    <linearGradient
       y2="520.32812"
       x2="327.78125"
       y1="522.61218"
       x1="308.5"
       spreadMethod="reflect"
       gradientTransform="translate(0,12)"
       gradientUnits="userSpaceOnUse"
       id="linearGradient6077"
       xlink:href="#linearGradient6035"
       inkscape:collect="always" />
    <linearGradient
       y2="520.32812"
       x2="327.78125"
       y1="522.61218"
       x1="308.5"
       spreadMethod="reflect"
       gradientTransform="translate(0,28)"
       gradientUnits="userSpaceOnUse"
       id="linearGradient6064"
       xlink:href="#linearGradient6035"
       inkscape:collect="always" />
    <linearGradient
       y2="520.32812"
       x2="327.78125"
       y1="522.61218"
       x1="308.5"
       spreadMethod="reflect"
       gradientTransform="translate(0,22)"
       gradientUnits="userSpaceOnUse"
       id="linearGradient6056"
       xlink:href="#linearGradient6035"
       inkscape:collect="always" />
    <linearGradient
       y2="520.32812"
       x2="327.78125"
       y1="522.61218"
       x1="308.5"
       spreadMethod="reflect"
       gradientTransform="translate(0,12)"
       gradientUnits="userSpaceOnUse"
       id="linearGradient6052"
       xlink:href="#linearGradient6035"
       inkscape:collect="always" />
    <linearGradient
       y2="520.32812"
       x2="327.78125"
       y1="522.61218"
       x1="308.5"
       spreadMethod="reflect"
       gradientTransform="translate(0,15.417003)"
       gradientUnits="userSpaceOnUse"
       id="linearGradient6049"
       xlink:href="#linearGradient6035"
       inkscape:collect="always" />
    <linearGradient
       gradientTransform="translate(0,16)"
       y2="520.32812"
       x2="327.78125"
       y1="522.61218"
       x1="308.5"
       spreadMethod="reflect"
       gradientUnits="userSpaceOnUse"
       id="linearGradient6045"
       xlink:href="#linearGradient6035"
       inkscape:collect="always" />
    <linearGradient
       gradientTransform="translate(0,0.25)"
       spreadMethod="reflect"
       gradientUnits="userSpaceOnUse"
       y2="520.32812"
       x2="327.78125"
       y1="522.61218"
       x1="308.5"
       id="linearGradient6041"
       xlink:href="#linearGradient6035"
       inkscape:collect="always" />
    <linearGradient
       gradientTransform="matrix(1.1818182,0,0,1.1818182,-31.65912,-123.63805)"
       y2="527.33539"
       x2="286.6308"
       y1="518.55707"
       x1="282.35706"
       gradientUnits="userSpaceOnUse"
       id="linearGradient6015"
       xlink:href="#linearGradient5466"
       inkscape:collect="always" />
    <linearGradient
       spreadMethod="reflect"
       y2="511.96591"
       x2="286.62845"
       y1="511.96591"
       x1="269.96979"
       gradientTransform="matrix(1.1818182,0,0,1.1818182,-30.64896,-69.394391)"
       gradientUnits="userSpaceOnUse"
       id="linearGradient5493"
       xlink:href="#linearGradient5495"
       inkscape:collect="always" />
    <linearGradient
       gradientTransform="matrix(1.1818182,0,0,1.1818182,-30.64896,-69.394391)"
       y2="527.33539"
       x2="286.6308"
       y1="518.55707"
       x1="282.35706"
       gradientUnits="userSpaceOnUse"
       id="linearGradient5490"
       xlink:href="#linearGradient5466"
       inkscape:collect="always" />
    <linearGradient
       gradientUnits="userSpaceOnUse"
       y2="532.00739"
       x2="327.79306"
       y1="532.00739"
       x1="288.39856"
       id="linearGradient5480"
       xlink:href="#linearGradient5474"
       inkscape:collect="always" />
    <linearGradient
       gradientUnits="userSpaceOnUse"
       y2="527.33539"
       x2="286.6308"
       y1="518.55707"
       x1="282.35706"
       id="linearGradient5472"
       xlink:href="#linearGradient5466"
       inkscape:collect="always" />
    <inkscape:perspective
       sodipodi:type="inkscape:persp3d"
       inkscape:vp_x="0 : 0.5 : 1"
       inkscape:vp_y="0 : 1000 : 0"
       inkscape:vp_z="1 : 0.5 : 1"
       inkscape:persp3d-origin="0.5 : 0.33333333 : 1"
       id="perspective5454" />
    <inkscape:perspective
       id="perspective5384"
       inkscape:persp3d-origin="372.04724 : 350.78739 : 1"
       inkscape:vp_z="744.09448 : 526.18109 : 1"
       inkscape:vp_y="0 : 1000 : 0"
       inkscape:vp_x="0 : 526.18109 : 1"
       sodipodi:type="inkscape:persp3d" />
    <linearGradient
       id="linearGradient5466"
       inkscape:collect="always">
      <stop
         id="stop5468"
         offset="0"
         style="stop-color:#e3e3e3;stop-opacity:1" />
      <stop
         id="stop5470"
         offset="1"
         style="stop-color:#a5a5a8;stop-opacity:1" />
    </linearGradient>
    <linearGradient
       id="linearGradient5474"
       inkscape:collect="always">
      <stop
         id="stop5476"
         offset="0"
         style="stop-color:#c3c3c3;stop-opacity:1" />
      <stop
         style="stop-color:#808184;stop-opacity:1"
         offset="0.38759774"
         id="stop5482" />
      <stop
         id="stop5484"
         offset="0.57053357"
         style="stop-color:#7f7f84;stop-opacity:1" />
      <stop
         style="stop-color:#a5a6aa;stop-opacity:1"
         offset="0.89746869"
         id="stop5486" />
      <stop
         id="stop5478"
         offset="1"
         style="stop-color:#9b9b9e;stop-opacity:1" />
    </linearGradient>
    <linearGradient
       inkscape:collect="always"
       id="linearGradient5495">
      <stop
         style="stop-color:#c6c6c6;stop-opacity:1"
         offset="0"
         id="stop5497" />
      <stop
         id="stop5501"
         offset="0.20484632"
         style="stop-color:#e3e3e3;stop-opacity:1" />
      <stop
         style="stop-color:#a5a5a8;stop-opacity:1"
         offset="1"
         id="stop5499" />
    </linearGradient>
    <linearGradient
       id="linearGradient6035">
      <stop
         id="stop6037"
         offset="0"
         style="stop-color:#ffffff;stop-opacity:1;" />
      <stop
         id="stop6039"
         offset="1"
         style="stop-color:#ffffff;stop-opacity:0;" />
    </linearGradient>
    <linearGradient
       inkscape:collect="always"
       xlink:href="#linearGradient6035"
       id="linearGradient8130"
       gradientUnits="userSpaceOnUse"
       gradientTransform="matrix(4.1992341,0,0,4.1992341,-914.55576,-1632.7612)"
       spreadMethod="reflect"
       x1="308.5"
       y1="522.61218"
       x2="327.78125"
       y2="520.32812" />
    <linearGradient
       inkscape:collect="always"
       xlink:href="#linearGradient5495"
       id="linearGradient8135"
       gradientUnits="userSpaceOnUse"
       gradientTransform="matrix(4.9627313,0,0,4.9627313,-1043.2579,-1925.2143)"
       spreadMethod="reflect"
       x1="269.96979"
       y1="511.96591"
       x2="286.62845"
       y2="511.96591" />
    <linearGradient
       inkscape:collect="always"
       xlink:href="#linearGradient5466"
       id="linearGradient8930"
       x1="128.13824"
       y1="239.5715"
       x2="224.68285"
       y2="239.5715"
       gradientUnits="userSpaceOnUse"
       gradientTransform="translate(-3.8890873,67.296465)" />
    <linearGradient
       inkscape:collect="always"
       xlink:href="#linearGradient5466"
       id="linearGradient9043"
       gradientUnits="userSpaceOnUse"
       gradientTransform="translate(-3.8890873,67.296465)"
       x1="128.13824"
       y1="239.5715"
       x2="224.68285"
       y2="239.5715" />
    <linearGradient
       inkscape:collect="always"
       xlink:href="#linearGradient6035"
       id="linearGradient9047"
       gradientUnits="userSpaceOnUse"
       gradientTransform="matrix(4.1992341,0,0,4.1992341,-1120.6727,-1862.2679)"
       spreadMethod="reflect"
       x1="308.5"
       y1="522.61218"
       x2="327.78125"
       y2="520.32812" />
    <linearGradient
       inkscape:collect="always"
       xlink:href="#linearGradient5495"
       id="linearGradient9051"
       gradientUnits="userSpaceOnUse"
       gradientTransform="matrix(4.9627313,0,0,4.9627313,-1249.3748,-2154.721)"
       spreadMethod="reflect"
       x1="269.96979"
       y1="511.96591"
       x2="286.62845"
       y2="511.96591" />
    <linearGradient
       inkscape:collect="always"
       xlink:href="#linearGradient5466"
       id="linearGradient9054"
       gradientUnits="userSpaceOnUse"
       x1="282.35706"
       y1="518.55707"
       x2="286.6308"
       y2="527.33539" />
  </defs>
  <metadata
     id="metadata7">
    <rdf:RDF>
      <cc:Work
         rdf:about="">
        <dc:format>image/svg+xml</dc:format>
        <dc:type
           rdf:resource="http://purl.org/dc/dcmitype/StillImage" />
        <dc:title></dc:title>
      </cc:Work>
    </rdf:RDF>
  </metadata>
  <g
     id="layer1"
     inkscape:groupmode="layer"
     inkscape:label="Capa 1"
     transform="translate(-80.942606,-281.18152)">
    <path
       transform="matrix(4.9627313,0,0,4.9627313,-1248.1824,-2232.6374)"
       d="m 303.29832,521.77954 c 0,3.06841 -7.46231,5.55584 -16.66752,5.55584 -9.20522,0 -16.66752,-2.48743 -16.66752,-5.55584 0,-3.0684 7.4623,-5.55584 16.66752,-5.55584 9.20521,0 16.66752,2.48744 16.66752,5.55584 z"
       sodipodi:ry="5.5558391"
       sodipodi:rx="16.667517"
       sodipodi:cy="521.77954"
       sodipodi:cx="286.6308"
       id="path6079"
       style="fill:#2e3436;fill-opacity:1;stroke:none;filter:url(#filter6093)"
       sodipodi:type="arc" />
    <path
       style="fill:url(#linearGradient9051);fill-opacity:1;stroke:none"
       d="m 90.4127,309.78594 0,40.36297 0.5249,0 c -0.33845,1.01311 -0.5249,1.97499 -0.5249,3.0182 0,15.22768 36.98942,27.55747 82.67242,27.55747 45.68301,0 82.67242,-12.32979 82.67242,-27.55747 0,-1.04473 -0.1856,-2.00366 -0.5249,-3.0182 l 0.5249,0 0,-40.36297 -165.34484,0 z"
       id="path5488"
       sodipodi:nodetypes="cccssscccc" />
    <path
       sodipodi:type="arc"
       style="fill:url(#linearGradient9054);fill-opacity:1;stroke:none"
       id="path5460"
       sodipodi:cx="286.6308"
       sodipodi:cy="521.77954"
       sodipodi:rx="16.667517"
       sodipodi:ry="5.5558391"
       d="m 303.29832,521.77954 c 0,3.06841 -7.46231,5.55584 -16.66752,5.55584 -9.20522,0 -16.66752,-2.48743 -16.66752,-5.55584 0,-3.0684 7.4623,-5.55584 16.66752,-5.55584 9.20521,0 16.66752,2.48744 16.66752,5.55584 z"
       transform="matrix(4.9627313,0,0,4.9627313,-1249.3748,-2280.698)" />
    <path
       style="fill:url(#linearGradient9047);fill-opacity:1;stroke:none"
       d="m 90.28147,309.12981 c 0.61876,15.04997 37.50681,27.16379 82.80365,27.16379 45.16814,0 81.85063,-12.04197 82.67242,-27.03257 -0.90586,0.77052 -1.85094,1.49111 -2.88697,2.23085 -0.0378,0.0491 -0.0907,0.0823 -0.13102,0.13101 -9.62523,11.66312 -41.58707,20.20882 -79.65422,20.20882 -38.30554,0 -70.48679,-8.69553 -79.91667,-20.47127 -0.10456,-0.0752 -0.15957,-0.18729 -0.26246,-0.26245 -0.91845,-0.67058 -1.81234,-1.27334 -2.62452,-1.96839 z"
       id="path6030" />
    <path
       style="fill:#565656;fill-opacity:1;stroke:none"
       d="m 90.80638,357.99859 c 4.72838,13.73167 39.81294,24.27683 82.27874,24.27683 42.07889,0 76.80017,-10.46441 82.01629,-24.01437 -14.76593,12.04252 -45.89158,20.34004 -82.01629,20.34004 -36.31426,0 -67.60779,-8.45617 -82.27874,-20.6025 z"
       id="path6060" />
    <g
       id="g9037"
       transform="matrix(1.0656695,0,0,1.0656695,-10.948151,-20.166444)">
      <path
         d="m 172.09226,305.82439 c 0,0 -5.25091,12.86555 -5.25091,12.86555 0,0 -6.21177,-2.86926 -6.21177,-2.86926 0,0 -24.70456,10.54953 -24.70456,10.54953 0,0 -11.67586,-6.15478 -11.67586,-6.15478 0,0 24.56842,-9.85081 24.56842,-9.85081 0,0 -5.61997,-2.59591 -5.61997,-2.59591 0,0 28.89465,-1.94432 28.89465,-1.94432 0,0 0,0 0,0 m 6.53739,-2.70374 c 0,0 27.63821,-1.83287 27.63821,-1.83287 0,0 -6.18379,-2.31528 -6.18379,-2.31528 0,0 17.82922,-7.61357 17.82922,-7.61357 0,0 -11.73521,-3.99321 -11.73521,-3.99321 0,0 -17.91222,7.18197 -17.91222,7.18197 0,0 -5.65042,-2.11556 -5.65042,-2.11556 0,0 -3.98579,10.68852 -3.98579,10.68852 0,0 0,0 0,0 m -39.81463,-13.7863 c 0,0 1.75877,10.21572 1.75877,10.21572 0,0 6.17345,-2.26316 6.17345,-2.26316 0,0 19.38715,8.2788 19.38715,8.2788 0,0 11.84677,-4.81593 11.84677,-4.81593 0,0 -19.42953,-7.7903 -19.42953,-7.7903 0,0 5.64659,-2.06999 5.64659,-2.06999 0,0 -25.3832,-1.55514 -25.3832,-1.55514 0,0 0,0 0,0 m 81.97874,33.90479 c 0,0 -31.84788,-2.33864 -31.84788,-2.33864 0,0 6.20549,-2.94383 6.20549,-2.94383 0,0 -22.48119,-9.60002 -22.48119,-9.60002 0,0 11.84683,-4.98631 11.84683,-4.98631 0,0 22.42691,8.9921 22.42691,8.9921 0,0 5.60724,-2.66001 5.60724,-2.66001 0,0 8.2426,13.53671 8.2426,13.53671 0,0 0,0 0,0"
         style="fill:url(#linearGradient9043);fill-opacity:1;stroke:none"
         id="path8150" />
      <path
         sodipodi:nodetypes="cccccccccccccccccccccccccccccccccccccccccccccccccccccc"
         id="path8932"
         d="m 206.1875,287.375 -17.90625,7.1875 -5.65625,-2.125 -4,10.6875 0.78125,-0.0625 3.21875,-8.625 5.65625,2.125 17.90625,-7.1875 9.125,3.09375 2.59375,-1.125 -11.71875,-3.96875 z m -67.375,1.96875 0.34375,2.03125 20.40625,1.21875 4.625,-1.71875 -25.375,-1.53125 z m 19.95726,3.68398 -0.20726,1.94102 16.9375,6.78125 2.46875,-1 -19.19899,-7.72227 z m 41.61428,5.81786 -0.29029,2.12316 1.65625,0.625 4.53125,-0.3125 -5.89721,-2.43566 z m -15.82512,4.57201 -3.87142,1.5824 -8.03125,3.34375 2.375,1 9.5,-3.96875 22.40625,9 5.625,-2.6875 6.9375,11.46875 1.28125,0.0937 -8.21875,-13.5625 -5.625,2.6875 -22.37858,-8.95735 z m -12.46517,2.3949 -2,0.125 -26.90625,1.84375 3.78125,1.75 24.28125,-1.65625 0.84375,-2.0625 z m -23.47243,4.61612 -24.37132,9.79013 2.15625,1.125 22.40625,-8.96875 -0.19118,-1.94638 z m 46.34911,7.45358 -6.03293,3.02405 3.65625,0.28125 2.5625,-1.21875 -0.18582,-2.08655 z"
         style="fill:#888a85;fill-opacity:1;stroke:none" />
      <path
         sodipodi:nodetypes="cccccccccccccccccccccccccccccccccc"
         id="path8941"
         d="m 206.3125,287.5 0,2 9.125,3.09375 2.59375,-1.125 L 206.3125,287.5 z m -23.5625,5.0625 0,2 5.65625,2.125 0.0937,-0.0312 0,-2 -0.0937,0.0312 -5.65625,-2.125 z m -23.84375,0.59375 -0.21875,1.9375 16.9375,6.78125 2.46875,-1 -19.1875,-7.71875 z m 41.59375,5.8125 -0.28125,2.125 1.65625,0.625 4.53125,-0.3125 -5.90625,-2.4375 z m -15.8125,4.5625 -0.0312,1.96875 22.40625,9 0,-2 -22.375,-8.96875 -5e-5,0 z m 28,6.28125 0,2 6.9375,11.46875 1.28125,0.0937 -8.21875,-13.5625 0,5e-5 z"
         style="fill:#626560;fill-opacity:1;stroke:none" />
      <path
         id="path8949"
         d="m 139.15809,289.78298 1.78125,10.21875 6.15625,-2.25 19.28125,8.21875 0.3125,0 11.65625,-4.75 -0.875,-0.34375 -10.96875,4.4375 -19.40625,-8.28125 -6.15625,2.28125 -1.65625,-9.53125 -0.125,0 z m 23.75,1.46875 -4,1.46875 0.90625,0.375 4.75,-1.75 -1.65625,-0.0937 z m 54.40625,0.25 -16.875,7.21875 0.90625,0.34375 16.90625,-7.25 -0.9375,-0.3125 z m -12.3125,9.625 -25.78125,1.71875 -0.25,0.71875 5.75,-0.375 0.15625,-0.0625 0.0937,0.0312 21.65625,-1.40625 -1.625,-0.625 z m -32.5625,5.15625 -0.3125,0.0312 -4.9375,12.125 -6.21875,-2.875 -24.6875,10.5625 -10.9375,-5.78125 -0.75,0.3125 11.6875,6.15625 24.6875,-10.53125 6.21875,2.875 5.25,-12.875 z m -27.59375,1.84375 -1.28125,0.0937 4.8125,2.21875 0.78125,-0.3125 -4.3125,-2 z m 29.03125,0.34375 -0.84375,0.34375 21.71875,9.28125 0.75,-0.375 -21.625,-9.25 z m 16.6875,12.28125 -1.25,0.59375 31.84375,2.34375 -0.4375,-0.71875 -30.15625,-2.21875 z"
         style="fill:#fcfcfc;fill-opacity:1;stroke:none" />
    </g>
  </g>
</svg>
